# xmcd
#
# Track frame offsets: 
#        150
#        12826
#        29488
#        48298
#        66995
#
# Disc length: 1128 seconds
#
# Revision: 0
# Processed by: cddbd v1.5.2PL0 Copyright (c) Steve Scherf et al.
# Submitted via: ExactAudioCopyFreeDBPlugin 1.0
#
DISCID=3b046605
DTITLE=Elke De Mey - Love Like Birds
DYEAR=2011
DGENRE=Pop
TTITLE0=Oscar
TTITLE1=Sailorboy
TTITLE2=Heavy Heart
TTITLE3=Manic
TTITLE4=Cold Ground
EXTD=
EXTT0=
EXTT1=
EXTT2=
EXTT3=
EXTT4=
PLAYORDER=
